HIERARCHY
ROOT Hips
{
   OFFSET 0.00000 0.00000 0.00000
   CHANNELS 6 Xposition Yposition Zposition Zrotation Xrotation Yrotation
   JOINT RightUpLeg
   {
      OFFSET -8.051219 -7.800363 0.091487
      CHANNELS 3 Zrotation Xrotation Yrotation
      JOINT RightLeg
      {
         OFFSET 0.000000 -39.980428 1.235430
         CHANNELS 3 Zrotation Xrotation Yrotation
         JOINT RightFoot
         {
            OFFSET 0.228194 -37.883157 -1.314531
            CHANNELS 3 Zrotation Xrotation Yrotation
            JOINT RightToes
            {
               OFFSET 0.036000 -3.973581 7.649189
               CHANNELS 3 Zrotation Xrotation Yrotation
               End Site
               {
                  OFFSET -0.072000 -0.123703 8.801811
               }
            }
         }
      }
   }
   JOINT Spine
   {
      OFFSET 0.000000 10.701450 0.000000
      CHANNELS 3 Zrotation Xrotation Yrotation
      JOINT Spine1
      {
         OFFSET 0.000000 23.091659 0.114897
         CHANNELS 3 Zrotation Xrotation Yrotation
         JOINT HEad
         {
            OFFSET 0.000000 7.860744 0.010207
            CHANNELS 3 Zrotation Xrotation Yrotation
            End Site
            {
               OFFSET -0.261000 11.496780 2.262555
            }
         }
         JOINT LeftShoulder1
         {
            OFFSET 8.091000 -0.326027 -0.198000
            CHANNELS 3 Zrotation Xrotation Yrotation
            JOINT LeftArm
            {
               OFFSET 9.254430 -0.003042 0.289911
               CHANNELS 3 Zrotation Xrotation Yrotation
               JOINT LeftForeArm
               {
                  OFFSET 29.490208 0.089230 -1.281906
                  CHANNELS 3 Zrotation Xrotation Yrotation
                  JOINT LeftHand
                  {
                     OFFSET 24.807870 0.076826 0.919944
                     CHANNELS 3 Zrotation Xrotation Yrotation
                     End Site
                     {
                        OFFSET 15.069871 -0.540000 1.352619
                     }
                  }
               }
            }
         }
         JOINT RightShoulder
         {
            OFFSET -8.091000 -0.326027 -0.198000
            CHANNELS 3 Zrotation Xrotation Yrotation
            JOINT RightArm
            {
               OFFSET -9.254430 -0.003042 0.289911
               CHANNELS 3 Zrotation Xrotation Yrotation
               JOINT RightForeArm
               {
                  OFFSET -29.607386 0.089230 -1.281906
                  CHANNELS 3 Zrotation Xrotation Yrotation
                  JOINT RightHand
                  {
                     OFFSET -24.742889 0.076826 0.919944
                     CHANNELS 3 Zrotation Xrotation Yrotation
                     End Site
                     {
                        OFFSET -14.968080 -0.540000 1.352619
                     }
                  }
               }
            }
         }
      }
   }
   JOINT LeftUpLeg
   {
      OFFSET 8.051219 -7.800363 0.091487
      CHANNELS 3 Zrotation Xrotation Yrotation
      JOINT LeftLeg
      {
         OFFSET 0.000000 -39.980428 1.235430
         CHANNELS 3 Zrotation Xrotation Yrotation
         JOINT LeftFoot
         {
            OFFSET -0.228194 -37.883157 -1.314531
            CHANNELS 3 Zrotation Xrotation Yrotation
            JOINT LeftToes
            {
               OFFSET -0.036000 -3.973581 7.649189
               CHANNELS 3 Zrotation Xrotation Yrotation
               End Site
               {
                  OFFSET 0.072000 -0.042703 8.801811
               }
            }
         }
      }
   }
}
MOTION
Frames: 21
Frame Time: 0.016667
-952.43 87.775 359.22 0.497528 -15.1246 3.68999 -10.4276 -40.6392 -17.8478 -5.01226 79.9691 -3.49112 -0.89694 -13.5185 11.2101 0.0462048 0.000533403 0.662642 30.6868 10.8761 -9.67601 -0.0198317 0.0234809 0.0339037 -41.2419 44.2204 46.4143 3.09048e-016 -1.49089e-016 -0 127.789 -36.4864 134.89 -116.444 53.4736 -6.0239 11.1052 17.1643 -3.86272 13.9414 12.4411 13.7639 91.0671 -42.8783 90.8547 98.6935 57.69 19.2165 -6.05725 25.2721 4.36335 23.7719 -38.2621 27.7836 60.8827 64.5974 -60.6722 -25.9728 -2.3593 -16.2112 1.24393e-009 1.55998e-007 -4.85536e-009 
-953.086 87.3841 358.228 -0.0588764 -14.702 1.6031 -14.5786 -40.4517 -22.1297 -26.3779 82.8222 19.6945 -2.22179 -11.5538 10.9872 0.0462048 0.000533403 0.662642 29.6781 12.7186 -8.78047 -0.0783333 0.0919015 0.0753059 -40.8499 42.0189 46.1173 3.42244e-015 -1.98785e-016 2.48481e-017 121.64 -31.7323 133.246 -118.9 52.8876 -6.7964 7.03887 19.913 -5.88733 14.8679 11.8924 14.7522 89.4358 -42.054 90.0495 97.6597 57.2309 19.9034 -6.0773 24.7114 4.77753 22.2005 -38.5261 25.896 62.0916 65.1968 -58.8549 -22.4335 -5.12544 -16.4098 1.24393e-009 1.55998e-007 -4.85536e-009 
-953.986 86.7131 357.442 -0.278313 -14.2894 0.197397 -16.0585 -39.9703 -25.5689 -71.0244 83.3345 64.9299 -17.1102 -11.7471 7.96153 0.0462048 0.000533403 0.662642 27.4374 15.0998 -6.68416 -0.0563439 0.0782416 0.0866049 -39.1671 38.7474 44.0064 -4.23194e-016 3.97569e-016 -0 117.422 -26.4538 134.823 -123.54 54.1913 -7.35001 6.56061 20.8559 -5.90874 17.1857 10.6406 14.7643 87.6788 -41.5159 89.0714 96.9865 57.054 20.5964 -6.5223 25.3875 4.9853 21.1656 -38.6667 23.9568 61.5777 67.3134 -54.853 -17.6622 -8.72529 -15.9812 1.24393e-009 1.55998e-007 -4.85536e-009 
-955.252 86.1758 356.602 -0.175599 -13.912 -0.592543 -21.3393 -39.4154 -27.2828 -101.664 79.7628 98.7788 -7.25287 -7.95477 10.9372 0.0462048 0.000533403 0.662642 24.196 17.6266 -3.31523 -0.0342039 0.0600715 0.088664 -35.8811 36.05 40.3198 1.2921e-015 1.59028e-015 -0 117.269 -26.5098 138.145 -125.967 54.4437 -8.18831 8.82773 10.6498 9.16078 20.3222 8.67523 13.7717 86.0944 -41.1768 87.9099 96.7874 57.1098 21.2082 -6.69679 25.0196 5.21528 21.7641 -38.2922 22.6921 54.9178 70.19 -45.6081 -11.5076 -11.9434 -14.6539 1.24393e-009 1.55998e-007 -4.85536e-009 
-956.873 85.5154 355.665 0.945762 -12.6938 1.04514 -26.2772 -38.5454 -30.3037 -109.158 74.941 108.241 -7.25989 -5.99431 10.6658 0.0462048 0.000533403 0.662642 19.9984 18.5657 -0.0925096 -0.00844399 0.0459614 0.087703 -31.6556 33.9179 35.3622 -5.76476e-015 0 -0 112.927 -28.2634 136.582 -126.573 52.6141 -9.97743 6.21415 21.811 -4.15372 23.8641 6.02297 11.734 84.6892 -40.8639 86.5565 97.0684 57.3819 21.7065 -7.19825 25.4523 5.38969 22.0866 -39.3626 20.5982 40.5732 73.185 -29.5967 -3.8485 -14.6642 -12.4517 1.24393e-009 1.55998e-007 -4.85536e-009 
-958.911 84.8988 354.608 2.06326 -11.608 2.69572 -30.2623 -37.0204 -30.9426 -107.343 70.2551 109.759 -0.178348 -3.31645 11.5342 0.0462048 0.000533403 0.662642 15.9368 18.974 2.98731 0.0353102 -0.00924964 -0.0139186 -28.1723 32.2168 31.1385 -6.55989e-015 -1.59028e-015 1.59028e-015 112.805 -30.2194 137.663 -126.596 51.295 -11.606 5.2023 20.6442 1.91456 27.1828 3.89451 10.0187 83.4123 -40.7296 85.1108 102.794 53.7626 19.6811 -8.18824 30.3817 4.12748 23.6128 -40.3174 19.7315 23.1738 73.8264 -11.997 3.90961 -15.8895 -9.94153 1.24392e-009 1.55998e-007 -4.85536e-009 
-961.164 84.3296 353.452 3.11739 -10.585 4.29441 -31.8102 -34.8172 -29.6784 -100.837 66.3285 107.021 5.04348 -1.63045 11.5024 0.0462048 0.000533403 0.662642 12.4399 19.0631 5.52351 0.0362103 -0.0130897 -0.0190986 -25.5476 30.6906 27.5544 -3.57812e-015 0 -1.59028e-015 113.912 -32.3946 138.833 -126.514 50.4565 -13.0475 4.38864 26.2307 -4.34871 29.4763 2.02397 8.51097 80.8578 -37.6197 79.973 101.32 54.892 21.498 -8.67551 33.4046 3.29487 24.6748 -41.2236 19.0138 7.59957 72.5959 3.52418 11.8953 -16.3926 -7.3685 1.24392e-009 1.55998e-007 -4.85536e-009 
-963.465 83.8637 352.211 4.05511 -9.56143 5.79172 -30.7363 -31.9469 -26.9636 -89.8227 62.8522 101.504 7.72082 -1.8442 10.9397 0.0462048 0.000533403 0.662642 9.47853 18.8949 7.59972 0.0330334 -0.0130897 -0.0190986 -23.6586 29.314 24.6404 -3.97569e-016 0 -0 115.557 -34.4721 139.976 -126.476 49.9884 -14.2005 7.37074 21.1006 16.4727 31.208 0.531499 7.36191 79.6564 -35.7592 77.0771 100.187 55.6468 23.2833 -8.60397 34.7466 2.86634 25.1227 -42.0172 18.3471 -3.49065 69.9263 14.3733 20.031 -16.2652 -4.81934 1.24393e-009 1.55998e-007 -4.85536e-009 
-965.904 83.3084 350.934 4.79997 -8.49775 7.14429 -29.7798 -28.2744 -22.6776 -76.4774 62.0271 92.9023 12.7789 -2.86861 10.2919 0.0462048 0.000533403 0.662642 7.05981 18.518 9.2862 0.0281082 -0.0130897 -0.0190986 -22.3362 28.0355 22.3124 -3.97569e-016 1.59028e-015 -0 117.347 -36.3069 141.137 -126.745 49.7796 -15.0405 6.3477 24.884 0.0418809 32.3062 -0.599251 6.43216 79.5645 -34.5625 75.6356 99.4687 56.1179 24.6315 -8.31146 35.2514 2.31196 25.2948 -42.8776 17.7285 -10.1368 66.7279 20.6222 27.8888 -15.6554 -2.46951 1.24391e-009 1.55998e-007 -4.85536e-009 
-968.351 82.879 349.678 5.33939 -7.40893 8.32717 -28.2282 -24.3507 -17.7513 -62.3276 62.6607 80.7377 12.2257 -5.31737 9.50572 0.0462048 0.000533403 0.662642 5.13655 18.0139 10.6364 0.0231829 -0.0130897 -0.0190986 -21.4532 26.7828 20.5082 7.95139e-016 0 -3.18055e-015 119.367 -37.969 142.565 -126.775 49.5593 -15.3785 6.88392 23.3693 11.0717 32.8994 -1.34933 5.62869 80.3009 -33.6423 75.2326 99.125 56.3959 25.3838 -7.91946 35.2556 1.90279 25.0655 -43.5449 17.0188 -13.4904 63.1062 23.4863 35.3421 -14.6449 -0.420649 1.24393e-009 1.55998e-007 -4.85536e-009 
-970.83 82.4954 348.472 5.66978 -6.33283 9.33993 -26.8598 -20.3322 -12.1242 -46.1764 63.1967 64.4079 12.353 -8.073 8.93025 0.0462048 0.000533403 0.662642 3.68033 17.461 11.6825 0.0231829 -0.0130897 -0.0190986 -20.9403 25.495 19.1834 7.95139e-016 1.59028e-015 -3.18055e-015 121.381 -39.3668 144.187 -126.987 49.2936 -15.4947 6.62056 25.3677 0.737742 32.933 -1.76612 4.79429 81.7779 -32.6406 75.5205 99.11 56.5509 25.5045 -7.59117 34.8785 1.48372 24.5979 -44.0485 16.2232 -14.6068 59.4075 24.0132 42.188 -13.3817 1.2543 1.24393e-009 1.55998e-007 -4.85536e-009 
-973.292 82.2135 347.369 5.80724 -5.32159 10.1972 -25.1804 -16.4708 -6.11955 -29.7452 62.747 45.4323 10.5498 -11.2373 8.40752 0.0462048 0.000533403 0.662642 2.64323 16.9267 12.4431 0.0231829 -0.0130897 -0.0190986 -20.7483 24.1755 18.3268 -1.59028e-015 -1.59028e-015 -0 123.385 -40.595 146.078 -127.209 48.9209 -15.192 6.83396 24.0381 7.04381 32.6694 -1.87757 3.92536 83.5828 -31.469 76.2128 99.2784 56.6296 25.1447 -7.4281 34.5485 1.15806 23.8549 -44.2347 15.2794 -14.1642 55.5962 22.8744 48.3733 -11.9529 2.53103 1.24392e-009 1.55998e-007 -4.85536e-009 
-975.688 82.085 346.348 5.71951 -4.46728 10.956 -24.3246 -13.4909 -0.716265 -16.8532 60.9869 29.1651 10.9839 -13.2408 8.17927 0.0462048 0.000533403 0.662642 2.06224 16.4898 12.8938 0.0231829 -0.0130897 -0.0190986 -20.8391 22.8639 17.9253 7.95139e-016 -1.59028e-015 3.18055e-015 125.188 -41.6222 148.101 -127.774 48.4257 -14.6615 7.10361 25.0538 0.313845 32.3253 -1.70082 3.01858 85.3983 -30.1635 77.1404 99.554 56.6544 24.459 -7.37885 34.1714 0.857721 22.5142 -44.2451 14.0568 -10.5941 52.6176 17.3611 52.9227 -10.6255 3.25829 1.24393e-009 1.55998e-007 -4.85536e-009 
-977.984 82.2953 345.517 5.47636 -3.87503 11.6737 -23.6806 -11.1873 3.96476 -4.09893 59.6977 12.6408 7.97498 -14.8877 7.40558 0.0462048 0.000533403 0.662642 1.88685 16.229 13.0194 0.0231829 -0.0130897 -0.0190986 -21.1794 21.6293 17.9564 -7.95139e-016 0 -3.18055e-015 126.806 -42.5282 150.252 -128.554 47.7735 -13.8145 6.88696 24.0206 3.88324 32.0621 -1.3618 2.21615 86.9049 -28.98 77.9843 99.9259 56.6708 23.6485 -7.53201 33.8293 0.768314 20.4889 -43.6607 12.4055 -5.56131 49.9496 9.26562 56.3737 -9.52816 3.69821 1.24393e-009 1.55998e-007 -4.85536e-009 
-980.07 82.6374 344.848 5.11904 -3.55966 12.3759 -23.9135 -9.55893 8.36183 8.49815 57.362 -2.3789 8.50994 -15.0653 7.14679 0.0462048 0.000533403 0.662642 2.08524 16.1385 12.8226 0.0231829 -0.0130897 -0.0190986 -21.7665 20.5645 18.4022 1.59028e-015 1.59028e-015 -3.18055e-015 128.231 -43.3299 152.472 -129.641 47.0262 -12.7761 7.40807 24.8646 -0.633223 31.7061 -0.914031 1.48358 88.2713 -27.9227 78.6481 100.324 56.694 22.8123 -7.7578 33.4846 0.727591 18.3822 -42.4941 10.5344 -1.80253 46.8017 2.77952 59.7472 -8.48767 4.0401 1.24393e-009 1.55998e-007 -4.85536e-009 
-981.897 83.1642 344.362 4.68816 -3.51505 13.066 -24.0666 -8.37125 12.148 19.7942 54.3251 -15.2119 5.98121 -15.128 6.31268 0.0462048 0.000533403 0.662642 2.62808 16.1743 12.3369 0.0231829 -0.0130897 -0.0190986 -22.5762 19.7592 19.2206 1.59028e-015 0 -0 129.638 -44.0742 154.813 -130.829 46.1897 -11.5362 6.91439 24.5284 1.23779 31.4399 -0.496366 0.938113 89.2694 -27.1349 78.929 100.732 56.7547 22.014 -8.10555 33.1636 0.978322 16.3829 -40.6545 8.63515 1.0248 43.2104 -2.40737 62.7967 -7.37997 4.18859 1.24393e-009 1.55998e-007 -4.85536e-009 
-983.537 83.9113 343.94 4.22626 -3.70272 13.7205 -24.5435 -7.52407 15.5585 28.5883 50.6151 -23.9414 5.72382 -14.269 5.84225 0.0462048 0.000533403 0.662642 3.41399 16.2991 11.6316 0.0231829 -0.0130897 -0.0190986 -23.4908 19.1689 20.3313 1.59028e-015 0 6.36111e-015 131.057 -44.8459 157.203 -131.999 45.3568 -10.2927 7.41287 25.2991 -1.62897 31.0526 0.0466892 0.521129 90.1941 -26.5537 78.9998 101.116 56.8647 21.2777 -8.16804 32.7714 0.910778 14.7558 -38.3558 6.93178 3.01178 39.4405 -6.38147 65.4725 -6.23066 4.12955 1.24393e-009 1.55998e-007 -4.85536e-009 
-984.912 84.6984 343.572 3.73656 -4.05954 14.2822 -24.2284 -7.39869 17.4836 33.4615 47.5699 -28.7529 3.75392 -13.981 5.14325 0.0462048 0.000533403 0.662642 4.36082 16.4573 10.812 0.0231829 -0.0130897 -0.0190986 -24.4674 18.8034 21.6677 7.95139e-016 -3.18055e-015 -0 132.581 -45.6673 159.66 -132.991 44.5739 -9.04942 6.94359 25.4175 -0.492952 30.5857 0.651178 0.304712 90.9619 -26.2448 78.8678 101.438 57.0102 20.6005 -8.132 32.5495 0.901249 13.6644 -35.7732 5.63857 3.30428 36.2471 -7.62797 68.5654 -4.60299 3.70322 1.24393e-009 1.55998e-007 -4.85536e-009 
-986.094 85.5606 343.214 3.21932 -4.52056 14.7017 -23.747 -7.40129 18.269 35.2559 45.4796 -29.8984 5.00638 -13.4264 5.01629 0.0462048 0.000533403 0.662642 5.39312 16.6116 9.96404 0.0231829 -0.0130897 -0.0190986 -25.4881 18.6597 23.1817 -7.95139e-016 -3.18055e-015 -6.36111e-015 134.187 -46.4827 162.085 -133.727 43.9099 -7.98925 7.46431 26.3896 -2.3112 29.9762 1.27285 0.202351 91.6161 -26.0414 78.6323 101.614 57.167 20.0288 -7.855 32.3996 0.823632 13.1957 -33.326 4.8238 2.56854 33.3851 -6.79696 71.6775 -2.82941 2.97609 1.24393e-009 1.55998e-007 -4.85536e-009 
-987.092 86.5639 342.888 2.68223 -5.03101 14.9598 -22.7427 -7.33049 17.8434 35.0321 44.493 -28.7753 5.42938 -13.118 4.75918 0.0462048 0.000533403 0.662642 6.44546 16.7376 9.14823 0.0231829 -0.0130897 -0.0190986 -26.5539 18.7329 24.8183 -2.38542e-015 -1.59028e-015 -9.54166e-015 135.884 -47.2043 164.458 -134.194 43.3398 -7.07999 7.18218 26.797 -1.62593 29.1632 1.88965 0.258969 92.203 -25.9318 78.3454 101.618 57.3195 19.5859 -7.57849 32.2045 0.83317 13.1285 -31.0826 4.40288 1.31685 30.6018 -4.65542 74.6354 -0.980576 1.97797 1.24393e-009 1.55998e-007 -4.85536e-009 
-987.925 87.6134 342.596 2.12705 -5.54769 15.0562 -21.7538 -6.98719 16.487 32.761 44.1778 -25.0876 8.7299 -12.6241 4.94708 0.0462048 0.000533403 0.662642 7.47836 16.8135 8.39869 0.0231829 -0.0130897 -0.0190986 -27.6634 18.967 26.5477 -0 0 3.18055e-015 137.611 -47.7714 166.686 -134.444 42.8682 -6.39354 7.60742 27.7461 -2.85041 28.1831 2.41602 0.362136 92.6925 -25.7747 78.0069 101.488 57.4315 19.2532 -7.24817 32.076 0.912636 13.194 -29.2255 4.29246 0.0741258 28.0813 -1.92905 77.2631 0.872095 0.85727 1.24393e-009 1.55998e-007 -4.85535e-009 
